<svg width="290" height="180" fill="none" xmlns="http://www.w3.org/2000/svg"><path d="M132.129 71.7c-.696-.512-4.654-4.609-8.787-6.446-3.082-1.37-11.141-.312-11.986-2.133-.375-.807 7.834-1.308 7.772-1.397 0 0-7.881.922-8.184.378-.742-1.328 7.853-2.25 7.853-2.25s-8.128 1.26-8.296.334c-.173-.957 7.24-3.094 11.984-2.87 5.829.275 9.765 6.874 13.019 9.02.443.292-3.008 5.634-3.375 5.364Z" fill="#EFC891"/><path d="M174.599 174.041c-.559 1.238-5.636 1.641-5.335 5.015.282 3.164 12.41-2.575 12.931-3.348.569-.842-1.238-4.16-3.411-6.542-.854-.936-3.624-.089-3.327 1.227.188.834-.1 1.969-.858 3.648ZM192.212 170.744c.395 1.268-3.146 4.787-.707 7.081 2.288 2.153 7.609-9.772 7.493-10.672-.126-.981-3.658-2.28-6.848-2.657-1.256-.148-2.776 2.234-1.689 3.016.688.494 1.217 1.514 1.751 3.232Z" fill="#520E5E"/><path d="M151.577 95.63s32.851-14.226 37.216-5.79c6.416 12.401-9.415 33.919-8.237 45.477.603 5.923 4.691 16.597 7.506 23.54 1.065 2.627 5.03 6.007 5.03 6.007l-2.694 2.58s-4.577-2.695-5.903-4.519c-4.774-6.567-14.834-20.887-16.725-28.034-1.669-6.303 1.503-26.046 1.503-26.046s-10.493 20.515-9.863 27.777c.872 10.07 19.237 32.31 19.237 32.31l-3.696 3.212s-24.843-23.208-27.87-33.88c-2.959-10.438 4.496-42.634 4.496-42.634Z" fill="#0979B2"/><path d="M171.371 37.88c7.044.897 10.403 5.277 12.837 8.33 9.976 12.51 6.852 52.145 5.742 54.189-5.509 10.131-29.744 3.634-38.086 2.282-3.079-.499-2.987-22.489-1.381-29.41.983-4.24 3.094-8.715 1.803-9.636-1.882-1.343-13.4 12.438-16.157 11.113-3.696-1.778-12.626-8.689-11.6-11.793.518-1.573 1.839-1.033 2.821-2.499.636-.95 5.334 4.53 8.538 4.719 4.791.282 5.954-10.473 15.183-19.239 2.209-2.098 11.265-9.207 20.3-8.056Z" fill="#275852"/><path d="M171.265 36.834c7.044.897 10.403 5.277 12.836 8.33 9.976 12.51 5.557 51.721 4.445 53.765-5.507 10.131-28.637 2.195-36.977.844-3.08-.499-2.799-20.627-1.193-27.549.983-4.239 3.095-8.714 1.803-9.635-1.882-1.343-13.399 12.438-16.156 11.113-3.696-1.778-12.626-8.689-11.601-11.793.519-1.573 1.839-1.033 2.822-2.499.636-.95 5.334 4.53 8.538 4.719 4.79.282 5.953-10.473 15.182-19.24 2.209-2.097 11.266-9.206 20.301-8.055Z" fill="#4AA599"/><path d="M169.449 38.88c-1.649 2.387-9.171 8.295-10.31 7.219-1.019-.963 1.432-3.371.649-7.437-.275-1.428-1.006-2.386-2.777-1.633-3.368 1.436-5.483 2.695-7.769 2.801-2.714.125-9.999-17.362-10.748-20.985-2.573-12.456 13.893-15.899 15.101-15.385 5.353 2.276 8.077 5.313 9.252 8.034.938 2.169-.758 4.65.38 5.714.963.9 3.478-2.152 4.225-1.04.773 1.15 1.236 13.704-4.614 9.056-.611-.486 8.865 10.395 6.611 13.656Z" fill="#EFC891"/><path d="M150.782 22.816a1.36 1.36 0 0 0 1.487 1.218 1.363 1.363 0 0 0 1.212-1.496 1.358 1.358 0 0 0-1.487-1.218 1.362 1.362 0 0 0-1.212 1.495ZM143.13 23.855a1.36 1.36 0 0 0 1.487 1.218 1.362 1.362 0 0 0 1.211-1.495 1.357 1.357 0 0 0-1.486-1.218 1.362 1.362 0 0 0-1.212 1.495ZM156.188 20.24c.015.01.049-.149.021-.403a3.44 3.44 0 0 0-.288-1.036 3.224 3.224 0 0 0-.946-1.246c-.457-.381-1.106-.61-1.739-.62a3.99 3.99 0 0 0-.923.107c-.295.068-.568.181-.826.292a6.226 6.226 0 0 0-1.276.802c-.34.273-.6.526-.769.715-.172.188-.264.3-.264.3l1.263-.65c.377-.185.817-.382 1.291-.55.237-.083.487-.141.736-.198.25-.044.504-.08.753-.065.5-.004.975.15 1.371.404.4.25.716.6.958.925.242.328.409.637.516.859.048.112.091.202.109.265.024.057.013.099.013.099Z" fill="#7A6C69"/><path d="m140.715 20.665.055-.277c.031-.183.1-.444.211-.76.11-.319.298-.69.608-1.018a2.415 2.415 0 0 1 1.307-.664 4.032 4.032 0 0 1 1.771.107c.582.165 1.152.545 1.589 1.047.435.51.734 1.165.821 1.86.047.334.031.719.032 1.117.003.393-.009.78-.02 1.167a37.079 37.079 0 0 1-.114 2.32c-.059.765-.135 1.517-.155 2.283a4.141 4.141 0 0 0 .499 2.188c.169.312.355.595.545.857.057.074.068.115.163.215.014.02.078.074.145.114.068.041.118.044.178.064.229.039.403-.022.556-.078.601-.253 1-.627 1.365-.945.359-.325.653-.623.891-.873.472-.501.715-.811.715-.811s-.292.264-.815.704c-.262.22-.584.484-.966.76-.382.266-.834.587-1.33.764-.12.039-.249.057-.322.034-.049-.009-.083-.056-.179-.218a7.263 7.263 0 0 1-.455-.832c-.271-.585-.38-1.214-.331-1.923.037-.707.157-1.467.218-2.243.069-.776.119-1.568.141-2.363.007-.398.015-.797.007-1.187-.007-.383.01-.78-.052-1.214-.109-.843-.513-1.612-1.046-2.202a3.74 3.74 0 0 0-1.959-1.14 4.503 4.503 0 0 0-1.981.015 2.534 2.534 0 0 0-1.427.893 2.992 2.992 0 0 0-.537 1.158 3.86 3.86 0 0 0-.114.799l-.014.282ZM156.129 31.908l-.028.383c-.022.117-.034.253-.08.408a2.677 2.677 0 0 1-.179.495 3.53 3.53 0 0 1-.769 1.023c-.35.316-.769.614-1.224.856-.906.494-1.918.826-2.689.946-.385.053-.713.058-.922-.016a.56.56 0 0 1-.219-.133l-.06-.079c.009-.01-.01.165.206.343.208.17.575.283 1.008.317.866.069 2.014-.167 3.033-.716.502-.285.978-.637 1.342-1.06.181-.212.337-.435.452-.666.125-.224.2-.461.248-.679.098-.438.055-.81 0-1.056-.064-.237-.119-.366-.119-.366Z" fill="#7A6C69"/><path d="M139.896 12.61c-2.651.858-.239 5.841-2.255 6.657-4.835 1.958-15.554-7.747-9.31-14.423 3.93-4.2 31.542-5.177 36.683-4.753.136.012 10.541 17.026 11.159 19.802.667 2.997-.923 6.27-3.17 7.977-4.172 3.168-10.612-2.556-10.612-2.556 3.351 1.716 8.89-12.34.484-6.544-.455.315.094-10.011-3.598-11.016-5.507-1.5-6.579.719-19.381 4.857Z" fill="#7A6C69"/><path d="M142.777 89.174 119.82 94.7l-11.192-31.07 22.446-6.946 11.703 32.49Z" fill="#8E6C41"/><path d="m161.579 78.605-18.802 10.57-11.703-32.491 19.768-7.885 10.737 29.806Z" fill="#BF9762"/><path d="m120.118 73.115 2.028 5.633 15.261-4.48-2.22-6.164-15.069 5.011Z" fill="#BC9166"/><path d="m135.187 68.104 16.397-7.194 1.859 5.158-16.036 8.2-2.22-6.164Z" fill="#DDAE7C"/><path d="m125.761 48.77-23.981 9.469 22.445-6.947 19.768-7.885-18.232 5.362Z" fill="#6D5132"/><path d="m146.411 50.97-19.919 7.42-11.009-30.563 19.918-7.42 11.01 30.563Z" fill="#DDAE7C"/><path d="m126.492 58.39-24.623 7.223L92 38.22l23.482-10.393 11.01 30.564Z" fill="#AF8251"/><path d="m109.726 55.78 4.159-1.55-7.215-22.502-4.942 2.187 7.998 21.865Z" fill="#BF9762"/><path d="M151.284 76.681c-.697-.511-2.488-5.581-6.62-7.418-3.083-1.37-11.142-.312-11.986-2.134-.375-.806 7.834-1.307 7.771-1.396 0 0-7.88.921-8.184.378-.741-1.328 7.853-2.251 7.853-2.251s-8.128 1.26-8.295.334c-.174-.956 7.239-3.093 11.983-2.869 5.83.275 9.765 6.874 13.019 9.02.444.291-5.174 6.606-5.541 6.336Z" fill="#EFC891"/><path d="M189.675 65.771c-.194 3.81-2.419 22.17-10.973 27.497-5.17 3.22-9.326 3.903-12.246 2.388-1.921-.997-15.176-10.378-15.598-18.315-.192-3.61-.147-6.61 1.936-6.891 3.288-.445 10.529 11.568 15.075 9.938 14.418-5.165-.725-31.596 5.307-38.55 2.067-2.385 17.526 3.794 16.499 23.933Z" fill="#275852"/><path d="M188.082 61.252c-.194 3.809-2.419 22.17-10.973 27.497-5.17 3.22-9.326 3.903-12.246 2.388-1.921-.997-15.176-10.378-15.598-18.316-.192-3.609-.147-6.609 1.936-6.89 3.288-.445 10.529 11.567 15.075 9.938 14.418-5.166-.725-31.596 5.307-38.55 2.067-2.385 17.526 3.794 16.499 23.933Z" fill="#4AA599"/><path d="m151.259 66.085-.037.005c-1.977.267-1.978 3.332-1.798 6.722.426 8.012 14.057 17.427 15.513 18.182 2.949 1.53 7.128.707 12.088-2.381 8.01-4.988 10.617-21.853 10.898-27.369l.16.008-.16-.008c.326-6.39-.957-11.9-3.815-16.377-3.015-4.723-6.75-6.62-8.216-7.215-1.94-.789-3.623-.881-4.19-.228-2.407 2.776-1.345 8.866-.221 15.314 1.649 9.456 3.518 20.176-5.151 23.282-2.651.95-6.138-2.527-9.214-5.593-2.311-2.305-4.494-4.482-5.857-4.342Zm17.962 25.924c-1.669.172-3.157-.07-4.43-.73-.989-.512-4.808-3.135-8.399-6.58-3.199-3.072-7.06-7.624-7.286-11.87-.189-3.545-.172-6.754 2.073-7.057l.048-.006c1.513-.155 3.647 1.972 6.113 4.433 3.009 3 6.418 6.407 8.882 5.52 8.417-3.016 6.572-13.594 4.945-22.927-1.138-6.524-2.212-12.687.296-15.579.664-.766 2.45-.712 4.548.142 6.079 2.47 12.928 10.214 12.231 23.905-.284 5.559-2.922 22.566-11.049 27.625-2.95 1.837-5.638 2.885-7.972 3.124Z" fill="#275852"/></svg>