<svg width="290" height="180" fill="none" xmlns="http://www.w3.org/2000/svg"><g clip-path="url(#a)"><path d="M79.154 40.608c-6.683 1.552-9.484 6.073-11.524 9.232-8.366 12.951-.282 51.827.985 53.672 6.286 9.15 27.743-.718 35.63-2.832 2.911-.78.671-21.807-1.55-28.271-1.359-3.96-3.826-8.032-2.675-9.04 1.678-1.47 14.097 10.579 16.617 9.04 3.38-2.064 11.288-9.554 10-12.423-.654-1.454-1.87-.807-2.958-2.113-.704-.846-4.684 4.858-7.745 5.355-4.578.741-6.748-9.433-16.477-16.91-2.33-1.79-11.73-7.7-20.303-5.71Z" fill="#C18421"/><path d="M79.154 39.597c-6.683 1.552-9.484 6.073-11.524 9.232-8.366 12.951-.282 50.027.985 51.872 6.286 9.15 27.743-.718 35.63-2.831 2.911-.78.671-20.008-1.55-26.472-1.359-3.96-3.826-8.032-2.675-9.041 1.678-1.47 14.097 10.58 16.617 9.04 3.38-2.063 11.288-9.553 10-12.422-.654-1.454-1.87-.808-2.958-2.113-.704-.846-4.684 4.858-7.745 5.354-4.578.742-6.748-9.432-16.477-16.91-2.33-1.79-11.73-7.7-20.303-5.709Z" fill="#F0A725"/><path d="M134.126 85.784s-5.316-16.977-11.65-18.034c-8.672-1.446-12.779 4.444-13.609 12.726-.084.84.5 1.603 1.334 1.731a1.58 1.58 0 0 0 1.805-1.339c.485-3.433.438-4.93 1.986-7.216 1.457-2.15 2.913-3.752 7.014-3.342 5.867.587 10.864 19.387 10.864 19.387l26.583 72.951c1.783-.737 2.892-1.202 2.892-1.202l-27.219-75.662ZM153.926 74.1s-5.316-16.978-11.65-18.034c-8.672-1.447-12.778 4.443-13.608 12.726a1.581 1.581 0 0 0 3.139.392c.484-3.434.437-4.93 1.985-7.217 1.457-2.15 2.913-3.752 7.014-3.342 5.867.587 10.864 19.387 10.864 19.387l26.584 72.951a648.463 648.463 0 0 0 2.891-1.201l-27.219-75.663Z" fill="#64D9C9"/><path d="M136.101 65.38c-7.023-7.718-10.732-3.845-12.142-.316-1.23 3.077-5.817-2.53-3.6-5.059 1.321-1.508 2.808-3.153 4.76-3.944 2.408-.977 5.389-1.13 8.307-.37 1.256.328 3.704 2.01 4.602 3.028.992 1.124 2.078 3.801 1.815 4.262-.442.774-3.505-3.098-3.505-3.098s3.254 3.677 2.781 4.301c-.755.998-4.23-3.035-4.23-3.035s3.425 3.79 2.847 4.463c-.469.544-1.246.197-1.635-.231Z" fill="#772808"/><path d="M90.351 175.57c.824 1.016 5.669.15 6.207 3.362.505 3.012-12.228.638-12.903.046-.737-.645.147-4.173 1.6-6.921.57-1.08 3.367-.969 3.409.329.025.821.572 1.807 1.687 3.184ZM64.651 164.176c-.642 1.139 1.943 5.331-.846 7.011-2.615 1.576-5.082-11.148-4.78-11.993.33-.922 3.934-1.395 7.02-1.052 1.215.135 2.138 2.778.947 3.293-.754.327-1.47 1.196-2.34 2.741Z" fill="#520E5E"/><path d="M67.803 93.168s33.694 5.672 37.021 3.509c0 0 6.597 32.197.998 43.936-3.493 7.323-36.922 22.104-39.25 21.136-.323-.134-.55-2.193-1.497-3.495-.136-.186 24.363-14.909 29.774-22.968 4.166-6.203-3.501-29.255-4.993-28.291-1.34.866 3.152 13.737 4.29 29.232.682 9.298-4.987 36.463-5.328 36.913-.77 1.011-2.423.195-3.498-.036-1.771-.378 1.008-14.127-1.12-33.323-.828-7.476-20.315-36.916-16.397-46.613Z" fill="#EB602D"/><path d="M83.121 155.568c.165-.075 1.45-.695 1.922-.925 0-1.475-.29-9.909-.386-9.836a86.895 86.895 0 0 1-2.112 1.584c.56 1.709.704 8.371.576 9.177ZM92.937 150.52a112.098 112.098 0 0 0 3.816-2.277c2.88-1.8-1.083-14.178-1.904-12.957-.184.274-.477.653-.704.941.136 2.541-.479 11.619-1.208 14.293Z" fill="#CC532E"/><path d="M64.287 69.092c.56 3.624 4.495 20.972 13.238 25.225 5.285 2.57 9.346 2.816 12.004 1.079 1.75-1.143 13.575-11.422 13.204-19.057-.169-3.471-.506-6.337-2.535-6.401-3.204-.103-8.99 12.102-13.52 10.992-14.363-3.523-2.393-30.298-8.871-36.358-2.222-2.078-16.477 5.355-13.52 24.52Z" fill="#C18421"/><path d="M81.1 41.375c1.819 2.121 9.626 7.033 10.616 5.892.886-1.022-1.706-3.085-1.351-7.051.125-1.393.734-2.382 2.509-1.835 3.378 1.042 5.536 2.038 7.743 1.915 2.621-.147 7.914-17.595 8.279-21.134C110.15 6.993 93.985 5.32 92.874 5.93c-4.922 2.704-7.243 5.879-8.107 8.596-.69 2.168 1.184 4.375.193 5.505-.837.955-3.554-1.717-4.163-.58-.63 1.176.152 13.232 5.321 8.21.54-.525-7.504 10.817-5.019 13.714Z" fill="#772808"/><path d="M109.958 7.186c-1.515-4.855-5.335-7.621-11.389-8.112-7.143-.58-4.976 2.416-9.266 3.766-2.349.739-2.428-.667-4.053.29-.662.389-3.907 1.574-6.177 4.636-1.657 2.233-3.384 6.803-3.186 11.782.522 13.064 9.959 10.115 8.88 8.886-.966-1.101-5.501-3.38-3.378-8.789.429-1.092 2.313 1.94 4.053 1.062 3.08-1.552 2.345-7.274 4.923-9.368 3.321-2.699 9.594-.194 14.96 4.153 1.674 1.356 2.748 2.877 3.638 2.413 1.148-.598 1.688-8.497.995-10.719Z" fill="#530E5F"/><path d="M97.472 24.17a1.311 1.311 0 1 1-2.622 0 1.311 1.311 0 0 1 2.622 0ZM104.93 24.412a1.312 1.312 0 1 1-2.623 0 1.312 1.312 0 0 1 2.623 0ZM92.024 22.238c-.014.012-.062-.137-.06-.384.003-.247.036-.607.176-1.018.133-.41.371-.887.786-1.287.403-.408 1.004-.692 1.612-.762.306-.04.607-.02.898.011.29.036.563.116.822.198.51.178.953.41 1.305.64.354.23.629.445.81.61.183.162.282.26.282.26s-.511-.2-1.278-.497c-.38-.14-.822-.286-1.294-.4a6.647 6.647 0 0 0-.726-.116 3.193 3.193 0 0 0-.73.012 2.43 2.43 0 0 0-1.279.521c-.36.28-.63.645-.831.98-.2.337-.331.65-.411.872-.037.112-.068.202-.08.264-.017.057-.002.096-.002.096Z" fill="#E8C0B8"/><path d="m106.939 21.122-.08-.26a4.505 4.505 0 0 0-.278-.706 2.653 2.653 0 0 0-.684-.913 2.33 2.33 0 0 0-1.321-.507 3.924 3.924 0 0 0-1.691.276c-.543.216-1.055.635-1.426 1.158a3.436 3.436 0 0 0-.607 1.86c-.012.324.041.69.079 1.072.036.377.085.746.133 1.115.089.74.203 1.482.336 2.207.132.727.279 1.439.374 2.17a3.97 3.97 0 0 1-.267 2.142 7.666 7.666 0 0 1-.439.874c-.049.077-.054.116-.136.222a.617.617 0 0 1-.129.121c-.06.048-.108.055-.164.08-.216.06-.389.019-.542-.02-.603-.183-1.023-.501-1.406-.77a15.867 15.867 0 0 1-1.708-1.452s.306.224.853.593c.273.185.608.405 1.003.633.393.216.858.48 1.352.598.119.027.246.031.314.002.046-.014.075-.062.15-.227.134-.268.256-.549.356-.84.203-.586.247-1.198.131-1.872-.105-.673-.294-1.389-.429-2.125a35.94 35.94 0 0 1-.367-2.246c-.046-.381-.092-.762-.123-1.135-.031-.367-.086-.747-.069-1.167.023-.817.335-1.592.79-2.21a3.626 3.626 0 0 1 1.771-1.283 4.38 4.38 0 0 1 1.907-.18 2.448 2.448 0 0 1 1.458.714c.336.355.522.737.63 1.055.117.316.162.579.188.753l.041.268ZM93.222 33.395l.064.363c.033.11.058.24.117.384.049.144.128.297.22.455.192.313.478.626.839.902.368.269.8.512 1.26.699.92.384 1.925.601 2.678.64.375.013.691-.014.885-.105a.548.548 0 0 0 .197-.149l.05-.081c-.01-.01.026.157-.163.347-.184.185-.526.328-.938.404-.826.15-1.954.037-2.986-.388-.51-.223-1.003-.513-1.394-.881a3.192 3.192 0 0 1-.5-.593 2.363 2.363 0 0 1-.305-.625 2.324 2.324 0 0 1-.103-1.01c.04-.233.079-.362.079-.362Z" fill="#E8C0B8"/><path d="M112.913 77.975c-3.893-10.142-8.719-7.695-11.27-4.747-2.225 2.571-4.57-4.608-1.611-6.28 1.764-.997 3.729-2.068 5.835-2.132 2.598-.078 5.445.859 7.915 2.672 1.063.78 2.772 3.325 3.259 4.652.537 1.466.622 4.49.216 4.846-.685.6-2.206-4.32-2.206-4.32s1.768 4.797 1.107 5.237c-1.054.703-2.906-4.525-2.906-4.525s1.889 4.972 1.113 5.42c-.63.363-1.236-.261-1.452-.823Z" fill="#772808"/><path d="M65.376 64.612c.56 3.624 4.495 20.971 13.238 25.225 5.285 2.57 9.346 2.816 12.005 1.079 1.749-1.143 13.574-11.422 13.203-19.057-.169-3.471-.505-6.337-2.534-6.402-3.205-.102-8.99 12.103-13.52 10.992-14.364-3.523-2.394-30.297-8.872-36.357-2.222-2.078-16.477 5.355-13.52 24.52Z" fill="#F0A725"/><path d="M65.528 64.589c.81 5.248 4.965 21.126 13.154 25.109 5.07 2.468 9.169 2.842 11.852 1.089 1.327-.866 13.509-11.212 13.134-18.92-.158-3.262-.459-6.194-2.386-6.256h-.035c-1.324 0-3.21 2.297-5.205 4.729-2.657 3.237-5.665 6.912-8.311 6.258-8.637-2.118-7.89-12.556-7.23-21.766.45-6.279.876-12.208-1.71-14.627-.608-.57-2.217-.316-4.006.63-1.35.714-4.755 2.896-7.19 7.71-2.31 4.566-3.004 9.962-2.067 16.044Zm20.987 27.59c-2.266 0-4.952-.736-7.968-2.204-8.307-4.04-12.506-20.05-13.323-25.34-2.01-13.029 3.817-21.11 9.418-24.073 1.933-1.021 3.644-1.252 4.358-.583 2.694 2.52 2.264 8.521 1.809 14.874-.652 9.089-1.39 19.39 6.996 21.447 2.453.593 5.4-2.989 7.999-6.156 2.152-2.623 4.008-4.886 5.489-4.841 2.187.07 2.517 3.137 2.683 6.548.198 4.083-3.069 8.818-5.844 12.071-3.115 3.651-6.53 6.535-7.429 7.123-1.16.758-2.566 1.135-4.188 1.135Z" fill="#C18421"/><path d="m224.472 159.707-53.667 5.125c-3.167.302-4.614-3.849-1.946-5.583l11.109-7.22a3.04 3.04 0 0 1 1.388-.479l44.303-3.925c3.487-.31 5.788 3.547 3.864 6.472l-2.799 4.253a3.045 3.045 0 0 1-2.252 1.357Z" fill="#64D9C9"/><path d="m224.472 156.343-53.667 5.125c-3.167.303-4.614-3.849-1.946-5.583l11.109-7.219a3.028 3.028 0 0 1 1.388-.479l44.303-3.925c3.487-.31 5.788 3.546 3.864 6.472l-2.799 4.253a3.04 3.04 0 0 1-2.252 1.356Z" fill="#DDE8E6"/><path d="M171.031 164.847c0 6.037-4.891 10.931-10.923 10.931-6.034 0-10.923-4.894-10.923-10.931 0-6.036 4.889-10.93 10.923-10.93 6.032 0 10.923 4.894 10.923 10.93Z" fill="#428E81"/><path d="M229.965 153.578c-.995 1.844-2.644 3.865-3.241 4.772 0 0-.772 1.201-2.14 1.333l-53.554 5.164-4.489-3.363s34.263-2.681 53.569-4.724c2.627-.278 5.513-.1 6.614-1.773 1.296-1.969 3.995-5.106 3.361-7.591 0 0 .783 4.508-.12 6.182Z" fill="#428E81"/><path d="m161.345 115.074 30.313-5.084 7.767 52.528-26.468 3.544-11.612-50.988Z" fill="#A07C53"/><path d="m184.681 106.62 34.059-5.712-27.082 9.082-30.313 5.084 23.336-8.454Z" fill="#8E6C41"/><path d="m191.658 109.99 27.082-9.082 8.303 49.579-27.618 12.031-7.767-52.528Z" fill="#DDAE7C"/><path d="m206.692 135.996 7.411-1.994-5.32-29.755-7.366 2.471 5.275 29.278Z" fill="#DDB78A"/><path d="m208.883 107.094-58.542 15.817-4.865-18.029 58.542-15.817 4.865 18.029Z" fill="#9B7249"/><path d="m220.761 94.212-11.879 12.881-4.864-18.029L215.806 77.1l4.955 17.112Z" fill="#BF9762"/><path d="m204.014 89.065-58.538 15.817 30.3-16.967 40.026-10.814-11.788 11.964Z" fill="#6D5132"/><path d="m181.693 88.884-3.576 3.63-3.37 4.459 6.527-1.764 6.529-7.977-6.11 1.652Z" fill="#B59572"/><path d="m177.732 108.035 6.527-1.764-2.985-11.061-6.527 1.763 2.985 11.062Z" fill="#DDB78A"/></g><defs><clipPath id="a"><path fill="#fff" d="M0 0h290v180H0z"/></clipPath></defs></svg>