<svg width="290" height="180" fill="none" xmlns="http://www.w3.org/2000/svg"><g clip-path="url(#a)"><path opacity=".7" d="M41.092 84.608v3.84l11.595-3.84v-2.957l-11.595 2.957Z" fill="#DDAE7C"/><path opacity=".7" d="m35.735 80.175 16.952 1.476-11.596 2.957h-6.584l1.228-4.433Z" fill="#8E6C41"/><path opacity=".7" d="m34.507 88.94 6.584-.492v-3.84l-6.472-.404-.112 4.736Z" fill="#A07C53"/><path opacity=".7" d="m46.454 85.31 1.98-.482-.319-2.01-2.13.543.469 1.949Z" fill="#DDB78A"/><path opacity=".7" d="m38.792 82.113 7.194 1.248 2.129-.544-9.12-1.498-.203.794Z" fill="#DDB78A"/><path opacity=".7" d="M77.062 65.588h3.357v-3.702l-3.357.285v3.417Z" fill="#6D5132"/><path opacity=".7" d="m80.695 76.058 6.382-2.156v-8.314H80.42l.275 10.47Z" fill="#DDB78A"/><path opacity=".7" d="M75.825 65.588h4.595l.275 10.64h-5.017l.147-10.64Z" fill="#BF9762"/><path opacity=".7" d="M83.034 71.36h1.834l.264-5.772h-2.217l.12 5.771Z" fill="#AF8251"/><path opacity=".7" d="M92.369 67.037v1.147l3.124.216v-1.255l-3.124-.108Z" fill="#BC9166"/><path opacity=".7" d="m95.492 67.145 3.516-.194V68l-3.516.399v-1.255Z" fill="#DDAE7C"/><path opacity=".7" d="m69.028 73.522 1.742-.158-.159-12.747-1.75.26.167 12.645Z" fill="#DDB78A"/><path opacity=".7" d="M61.13 70.217c-.06.181.425 13.498.425 13.498l5.825-1.573-.667-12.772-5.583.847Z" fill="#BF9762"/><path opacity=".7" d="m55.024 69.37 5.196-.969 6.493.968-5.582.848-6.107-.848Z" fill="#8E6C41"/><path opacity=".7" d="m55.024 83.23 7.1.485-.425-13.498-6.675-.847v13.86Z" fill="#6D5132"/><path opacity=".7" d="m56.167 73.909 1.013.247.206-4.415-1.11-.14-.11 4.308Z" fill="#A07C53"/><path opacity=".7" d="m63.367 68.87-1.07-.16-6.022.89 1.112.141 5.98-.87Z" fill="#BF9762"/><path d="M104.191 159.251c3.661 5.903-57.558-13.888-57.558-13.888s-15.806-11.818-19.735-31.611c-3.125-15.743 7.25-40.387 16.776-47.33 14.288-10.412 51.564-5.844 62.162 5.12 2.048 2.119 7.674 15.897.553 31.648-9.786 21.647-4.394 52.519-2.198 56.061Z" fill="#7AB1F7"/><path d="M99.197 106.287a5.061 5.061 0 0 0-.138 2.303c-1.082-1.08-1.534-2.649-1.092-4.136l12.344-41.556c.604-2.034 2.652-3.302 4.854-3.014l12.094 1.568a4.629 4.629 0 0 1 2.493 1.135 7.03 7.03 0 0 0-.154-.022l-12.094-1.569c-2.707-.348-5.216 1.22-5.963 3.735l-12.344 41.556Zm2.034 4.769-.739-1.389a4.073 4.073 0 0 1-.318-3.09l12.344-41.556c.605-2.033 2.651-3.299 4.855-3.015l12.094 1.569a4.69 4.69 0 0 1 1.458.437l1.413.691-.738-1.388c-.834-1.565-2.407-2.64-4.21-2.873l-12.093-1.57c-2.71-.347-5.216 1.22-5.964 3.736L96.99 104.163c-.724 2.437.466 5.045 2.829 6.201l1.412.692Z" fill="#000"/><path d="m115.961 114.083-12.094-1.568c-3.032-.394-5.015-3.279-4.182-6.084l12.344-41.555c.671-2.259 2.968-3.691 5.409-3.375l12.094 1.569c3.032.393 5.015 3.278 4.182 6.083l-12.344 41.555c-.671 2.259-2.968 3.692-5.409 3.375Z" fill="#9A9C9E"/><path d="M116.753 61.966c.204 0 .411.013.62.04l12.093 1.57c1.346.174 2.53.908 3.249 2.013.675 1.04.857 2.253.51 3.419l-12.344 41.555c-.603 2.034-2.649 3.3-4.855 3.015l-12.093-1.569c-1.346-.174-2.53-.908-3.25-2.014-.675-1.039-.856-2.253-.509-3.418l12.344-41.556c.547-1.841 2.273-3.055 4.235-3.055Zm-.104 52.672c2.408 0 4.532-1.505 5.209-3.784l12.345-41.556a5.137 5.137 0 0 0-.634-4.264c-.881-1.356-2.33-2.256-3.972-2.47l-12.093-1.568c-2.707-.348-5.216 1.22-5.963 3.735l-12.344 41.555a5.134 5.134 0 0 0 .632 4.264c.882 1.356 2.33 2.256 3.973 2.469l12.093 1.57c.254.032.505.049.754.049Z" fill="#000"/><path d="M64.383 117.61c-16.436 2.824-17.987 29.099-17.987 29.099-35.45-30.712-15.645-69.82.727-81.886 8.282-6.104 18.848 2.225 20.275 6.961 3.195 10.609-3.775 24.352-5.624 34.324-1.05 5.659 5.198 11.058 2.609 11.502Z" fill="#0979B2"/><path d="M61.925 116.244c-13.887 3.205-15.379 24.923-15.53 28.593-12.709-10.56-19.488-23.87-19.613-38.522-.148-17.217 8.739-32.648 17.057-39.698 3.29-2.788 6.894-2.566 9.337-1.89 4.46 1.234 8.42 4.9 9.322 7.55 2.37 6.97.22 15.794-1.675 23.58-.841 3.449-1.634 6.705-2.018 9.639-.403 3.083 1.223 5.936 2.41 8.019.624 1.095 1.213 2.13 1.041 2.523-.016.036-.063.145-.331.206Zm-15.043 29.652.005-.53c.003-.252.441-25.231 15.152-28.625.343-.079.573-.247.684-.499.275-.627-.288-1.614-1.066-2.979-1.152-2.02-2.728-4.788-2.347-7.701.38-2.906 1.17-6.15 2.007-9.584 1.913-7.854 4.08-16.755 1.663-23.866-.938-2.761-4.902-6.557-9.668-7.876-2.562-.71-6.343-.94-9.802 1.992-8.407 7.125-17.386 22.71-17.238 40.092.128 14.96 7.113 28.529 20.199 39.241l.41.335Z" fill="#4E7EAF"/><path d="M127.404 67.321c.165 0 .332.02.496.063a1.98 1.98 0 0 1 1.225.916c.273.459.351.997.218 1.514l-1.706 6.696a1.986 1.986 0 0 1-.916 1.224c-.459.272-.996.35-1.514.218a1.981 1.981 0 0 1-1.224-.916 1.985 1.985 0 0 1-.218-1.513l1.706-6.696c.132-.518.458-.953.916-1.225a1.984 1.984 0 0 1 1.017-.28Zm-1.698 11.713a3 3 0 0 0 1.535-.424 2.998 2.998 0 0 0 1.383-1.849l1.707-6.696a3 3 0 0 0-.329-2.285 3.002 3.002 0 0 0-1.849-1.383 2.995 2.995 0 0 0-2.286.33 2.997 2.997 0 0 0-1.383 1.848l-1.706 6.696c-.2.78-.083 1.592.329 2.285a2.996 2.996 0 0 0 1.849 1.383c.248.064.499.095.75.095Z" fill="#000"/><path d="M128.61 71.564a1.771 1.771 0 1 1-3.542 0 1.771 1.771 0 0 1 3.542 0Z" fill="#050403"/><path d="M126.839 70.303c.695 0 1.261.566 1.261 1.261s-.566 1.261-1.261 1.261a1.263 1.263 0 0 1-1.261-1.26c0-.696.566-1.262 1.261-1.262Zm0 3.541a2.283 2.283 0 0 0 2.28-2.28 2.283 2.283 0 0 0-2.28-2.28 2.282 2.282 0 0 0-2.28 2.28 2.282 2.282 0 0 0 2.28 2.28ZM109.832 62.898c.605-2.033 2.653-3.302 4.855-3.015l12.094 1.569a4.637 4.637 0 0 1 2.493 1.134 6.344 6.344 0 0 0-.155-.022l-12.094-1.568c-2.707-.348-5.215 1.22-5.962 3.735l-12.344 41.555a5.068 5.068 0 0 0-.139 2.304c-1.081-1.08-1.534-2.65-1.091-4.136l12.343-41.556Z" fill="#000"/><path d="m99.34 110.364 1.413.692-.739-1.389a4.071 4.071 0 0 1-.318-3.09l12.344-41.556c.604-2.033 2.651-3.299 4.855-3.015l12.093 1.569a4.69 4.69 0 0 1 1.46.437l1.411.691-.738-1.388c-.833-1.565-2.406-2.64-4.209-2.873l-12.094-1.57c-2.709-.346-5.216 1.22-5.962 3.736l-12.345 41.555c-.723 2.437.466 5.044 2.83 6.201Z" fill="#000"/><path d="M106.656 108.163c.603 3.162-11.74 5.526-15.801 10.603-10.797 13.496-33.876 27.888-44.223 26.597-3.58-.446 3.137-33.416 14.436-29.053 7.396 2.856 15.738.641 18.01-3.465 4.945-8.942 19.891-16.323 24.334-12.857 2.481 1.935-6.442 4.488-6.442 4.488.8-.179 8.318-2.61 9.093-.547 1.009 2.688-7.76 5.345-7.76 5.345s7.894-3.52 8.353-1.111Z" fill="#EDB084"/><path d="M61.982 116.493c-15.08 3.48-15.35 28.871-15.35 28.871-34.156-27.958-17.568-66.558-2.957-78.941 7.39-6.265 17.534 1.273 19.064 5.771 3.426 10.075-2.412 23.64-3.68 33.335-.72 5.502 5.298 10.416 2.923 10.964Z" fill="#7AB1F7"/><path d="M65.89 66.302c1.036 5.307 18.302 16.518 23.384 16.616 3.197.062 1.597-5.559 0-10.724-2.243-7.252-1.3-10.09-10.794-10.42-9.057-.316-14.05-2.95-12.59 4.528Z" fill="#0979B2"/><path d="M168.066 119.501h96.963v32.675h-96.963v-32.675Z" fill="#BF9762"/><path d="M140.994 114.857h96.964l27.072 4.644h-96.964l-27.072-4.644Z" fill="#DDAE7C"/><path d="M191.426 114.857h10.773l20.05 4.644h-13.894l-16.929-4.644Z" fill="#BF9762"/><path d="M140.994 152.176h27.072v-32.675l-27.072-4.644v37.319ZM208.356 142.266h13.893v-22.765h-13.893v22.765ZM38.572 180.328h32.833v-13.985l-32.833 1.805v12.18Z" fill="#8E6C41"/><path d="M8.815 180.328H38.57v-12.18l-29.756-.664v12.844Z" fill="#BF9762"/><path d="m35.354 165.63 36.051.713-32.833 1.805-29.757-.664 26.539-1.854Z" fill="#6D5132"/><path d="M73.874 157.948H37.898v-44.219h35.976v44.219Z" fill="#DDAE7C"/><path d="M37.898 157.948.645 155.809V115.53l37.253-1.801v44.219Z" fill="#AF8251"/><path d="M12.697 146.649h7.511l1.418-32.133-9.123.441.194 31.692ZM87.069 137.571h67.461v14.605H87.069v-14.605Z" fill="#BF9762"/><path d="m87.069 130.884 42.696 1.008 24.765 5.679H87.069v-6.687ZM108.478 147.994h20.266v-10.422h-20.266v10.422Z" fill="#DDAE7C"/><path d="M99.758 134.228h20.266l8.72 3.343h-20.266l-8.72-3.343Z" fill="#E8CFB8"/><path d="M88.42 170.338h180.933v10.064H88.42v-10.064Z" fill="#BF9762"/><path d="m88.42 165.729 114.513.695 66.42 3.914H88.42v-4.609Z" fill="#DDAE7C"/><path d="M144.06 180.401h24.657v-10.064H144.06v10.064Z" fill="#DDAE7C"/><path d="M133.45 168.033h24.658l10.61 2.304h-24.657l-10.611-2.304Z" fill="#E8CFB8"/><path d="M.645 152.176h71.932a5.332 5.332 0 0 0 5.331-5.332V113.59a5.331 5.331 0 0 1 5.332-5.331h4.25a5.33 5.33 0 0 1 5.332 5.331v33.254a5.333 5.333 0 0 0 5.332 5.332h169.601a5.332 5.332 0 0 0 5.331-5.332V113.59a5.332 5.332 0 0 1 5.332-5.331h4.25A5.33 5.33 0 0 1 288 113.59v66.738h-14.914v-11.933a5.332 5.332 0 0 0-5.331-5.332H98.154a5.333 5.333 0 0 0-5.332 5.332v11.933H77.908v-11.933a5.332 5.332 0 0 0-5.331-5.332H.645v-10.887Z" fill="#64D9C9"/><path d="m25.677 180.328-12.097-1.374v-7.463l24.992 1.384v7.453H25.677Z" fill="#DDAE7C"/><path d="M38.572 180.328v-7.453l22.209-.769v8.149l-1.05.073h-21.16Z" fill="#BC9166"/><path d="M109.672 29.284c-7.076 14.937.198 33.11-16.816 34.197-4.701.3-6.298-2.227-8.411-2.915-1.475-.48 5.875 19.122 4.47 19.322-3.045.432-21.28-12.157-20.807-14.365 1.636-7.636.116-15.733-5.54-20.973-3.33-3.087-4.302-7.472-4.302-10.942 0-12.542 12.039-22.914 25.156-22.914 13.118 0 31.619 7.255 26.25 18.59Z" fill="#EDB084"/><path d="M113.934 16.486c-.699 3.206-6.844.02-6.744.26.084.202 7.104 2.35 5.551 5.508-2.262 4.604-7.546-1.561-7.546-1.561s4.611 3.802 1.431 5.855c-5.115 3.303-15.403-1.84-22.27-3.258C67.7 19.85 60.053 39.26 58.772 37.099 52.862 27.122 59.052 0 78.804 0c16.58 0 37.213 6.934 35.13 16.486ZM87.548 36.602a1.678 1.678 0 1 1-3.356 0 1.678 1.678 0 0 1 3.356 0ZM102.85 38.28a1.678 1.678 0 1 1-3.355 0 1.678 1.678 0 0 1 3.355 0Z" fill="#520E5E"/><path d="m77.347 31.3.05-.183c.02-.126.114-.277.225-.455a2.9 2.9 0 0 1 .54-.564c.232-.193.523-.379.85-.562.657-.365 1.479-.695 2.384-.971.448-.15.928-.252 1.409-.37.483-.11.98-.201 1.478-.26.497-.076.996-.117 1.486-.133.49-.004.972-.013 1.428.045.46.042.887.141 1.286.253.379.147.75.288 1.026.508.293.203.506.453.684.692l.203.367c.058.118.09.235.131.339.088.207.1.386.135.505l.04.184.015-.188c-.002-.121.05-.309.009-.542-.015-.116-.02-.25-.05-.392a8.873 8.873 0 0 0-.137-.453c-.079-.149-.15-.322-.255-.484-.119-.15-.23-.333-.392-.47-.293-.32-.696-.557-1.13-.773-.442-.185-.925-.36-1.435-.434a8.375 8.375 0 0 0-1.571-.14c-.534.005-1.075.036-1.61.106-1.066.15-2.11.423-3.046.795-.938.365-1.774.822-2.412 1.332-.643.498-1.082 1.062-1.246 1.518-.08.23-.113.422-.1.541l.005.189ZM87.548 53.715s.079.2.231.54c.072.17.174.372.311.599.126.234.287.486.485.746.184.27.426.536.694.806.274.266.586.532.951.756.368.214.766.434 1.215.544.44.133.912.183 1.378.181.47-.01.924-.108 1.357-.227a6.25 6.25 0 0 0 1.195-.518 7.833 7.833 0 0 0 1.77-1.376c.91-.932 1.285-1.715 1.285-1.715s-.647.567-1.662 1.268c-.511.346-1.12.717-1.796 1.021a8.17 8.17 0 0 1-1.06.374c-.367.088-.741.158-1.115.155-.748.037-1.48-.172-2.126-.486a7.428 7.428 0 0 1-.9-.554c-.145-.092-.261-.214-.393-.31a3.552 3.552 0 0 1-.36-.31 14.762 14.762 0 0 1-1.06-1.065c-.25-.276-.4-.429-.4-.429ZM106.324 35.585c-.337-.606-.681-1.215-1.105-1.775a11.205 11.205 0 0 0-1.382-1.595c-1.007-.986-2.348-1.756-3.848-1.883-1.499-.131-3.004.41-4.17 1.304a8.506 8.506 0 0 0-1.566 1.548 7.383 7.383 0 0 0-1.103 1.913c-.272.749-.401 1.43-.516 2.144-.106.706-.176 1.41-.215 2.113a47.375 47.375 0 0 0-.047 4.202c.05 1.395.123 2.787.254 4.174.119 1.388.28 2.769.476 4.15l.426-.273-2.12-1.107a76.79 76.79 0 0 0-2.135-1.086c.653.462 1.312.911 1.977 1.351l1.99 1.329.457.306-.031-.58c-.152-2.759-.262-5.527-.27-8.28.004-1.378.01-2.754.109-4.116.052-.68.109-1.358.2-2.025.094-.655.232-1.343.427-1.902.23-.613.544-1.17.93-1.7a7.502 7.502 0 0 1 1.342-1.409c1.006-.812 2.249-1.35 3.54-1.297a5.04 5.04 0 0 1 1.891.422c.607.259 1.177.623 1.711 1.039 1.076.836 1.953 1.915 2.778 3.033Z" fill="#520E5E"/></g><defs><clipPath id="a"><path fill="#fff" d="M0 0h290v180H0z"/></clipPath></defs></svg>